<?xml version="1.0" encoding="UTF-8"?>
<svg id="Layer_1" xmlns="http://www.w3.org/2000/svg" version="1.1" viewBox="0 0 75 21.4">
  <!-- Generator: Adobe Illustrator 29.0.0, SVG Export Plug-In . SVG Version: 2.1.0 Build 186)  -->
  <g>
    <path id="s" d="M25.9,11.9c-.6-.4-1-.6-1-1s.5-.8,1.2-.8,1.6.4,1.6.4l.6-1.8s-.5-.4-2.1-.4-3.8,1.3-3.8,3.1.7,1.8,1.7,2.3c.8.4,1,.8,1,1.2s-.4.9-1.1.9c-1.1,0-2.1-.6-2.1-.6l-.6,1.8s.9.6,2.5.6c2.3,0,3.9-1.1,3.9-3.1,0-1.1-.8-1.9-1.8-2.5Z"/>
    <path id="h" d="M35,8.1c-1.1,0-2,.5-2.7,1.3h0s1-5.1,1-5.1h-2.6l-2.5,13h2.5l.8-4.4c.3-1.7,1.2-2.7,2-2.7s.8.4.8.9,0,.8-.1,1.1l-1,5.1h2.5l1-5.2c.1-.6.2-1.2.2-1.7,0-1.5-.7-2.3-2-2.3Z"/>
    <path id="o" d="M42.8,8.1c-3.1,0-5.1,2.8-5.1,5.8s1.2,3.6,3.5,3.6,5-2.7,5-5.8c0-1.8-1-3.6-3.4-3.6ZM41.6,15.5c-.9,0-1.2-.7-1.2-1.7,0-1.5.8-3.8,2.1-3.8s1.2.8,1.2,1.5c0,1.6-.8,4-2.1,4Z"/>
    <path id="p" d="M52.8,8.1c-1.7,0-2.7,1.5-2.7,1.5h0l.2-1.4h-2.3c-.1.9-.3,2.3-.5,3.4l-1.8,9.3h2.5l.7-3.8h0s.5.3,1.5.3c3,0,4.9-3.1,4.9-6.2s-.8-3.2-2.6-3.2ZM50.4,15.6c-.7,0-1-.4-1-.4l.4-2.4c.3-1.6,1.1-2.6,2-2.6s1,.7,1,1.4c0,1.6-1,4-2.4,4Z"/>
    <path id="dot" d="M59,4.4c-.8,0-1.5.6-1.5,1.5s.5,1.3,1.2,1.3h0c.8,0,1.5-.5,1.5-1.5,0-.8-.5-1.3-1.3-1.3Z"/>
    <polygon id="i" points="55.5 17.3 58 17.3 59.8 8.3 57.2 8.3 55.5 17.3"/>
    <path id="f" d="M66.2,8.3h-1.8v-.4c.2-.9.7-1.6,1.6-1.6s.8.1.8.1l.5-2s-.4-.2-1.4-.2-1.8.3-2.5.8c-.9.7-1.3,1.8-1.5,2.9v.4h-1.2l-.4,1.9h1.2l-1.3,7.1h2.5l1.3-7.1h1.7l.4-1.9Z"/>
    <path id="y" d="M72.3,8.3s-1.6,4-2.3,6.2h0c0-.7-.6-6.2-.6-6.2h-2.7l1.5,8.3c0,.2,0,.3,0,.4-.3.6-.8,1.1-1.4,1.5-.5.4-1,.6-1.4.7l.7,2.2c.5-.1,1.6-.5,2.5-1.4,1.2-1.1,2.2-2.8,3.3-5l3.1-6.7s-2.7,0-2.7,0Z"/>
  </g>
  <g>
    <path d="M12.5,2.4s-.2,0-.6.2c0-.2-.2-.5-.3-.7-.4-.8-1.1-1.3-1.9-1.3h0c0,0-.1,0-.2,0,0,0,0,0,0,0C9.2.2,8.7,0,8.2,0c-1,0-2,.8-2.8,2.1-.6.9-1,2.1-1.1,2.9-1.2.4-2,.6-2,.6-.6.2-.6.2-.7.8,0,.4-1.6,12.3-1.6,12.3l12.7,2.2V2.4c-.1,0-.2,0-.2,0ZM9.6,3.3c-.7.2-1.4.4-2.1.7.2-.8.6-1.6,1.1-2.1.2-.2.4-.4.7-.5.3.6.4,1.4.3,2ZM8.2.7c.2,0,.4,0,.6.2-.3.1-.5.4-.8.6-.6.7-1.1,1.8-1.3,2.8-.6.2-1.2.4-1.8.5.4-1.6,1.7-4.1,3.3-4.1ZM6.3,9.9c0,1.1,2.9,1.3,3.1,3.8.1,2-1.1,3.4-2.8,3.5-2.1.1-3.2-1.1-3.2-1.1l.4-1.8s1.1.9,2,.8c.6,0,.8-.5.8-.9,0-1.4-2.4-1.3-2.6-3.6-.1-1.9,1.1-3.9,4-4.1,1.1,0,1.6.2,1.6.2l-.6,2.4s-.7-.3-1.6-.3c-1.2,0-1.3.9-1.2,1.1ZM10.3,3.1c0-.5,0-1.2-.3-1.8.8.2,1.1,1,1.3,1.5-.3,0-.6.2-1,.3Z"/>
    <path d="M13.1,20.8l5.3-1.3s-2.3-15.3-2.3-15.4c0-.1-.1-.2-.2-.2s-1.6,0-1.6,0c0,0-.9-.9-1.2-1.2v18.2Z"/>
  </g>
</svg>