<svg width="52" height="54" viewBox="0 0 52 54" fill="none" xmlns="http://www.w3.org/2000/svg">
<path d="M22.8526 16.5207L15.7834 16.3619C15.6517 16.3618 15.5213 16.3877 15.3997 16.4382C15.1546 16.5341 14.9572 16.7228 14.8504 16.9634C14.7945 17.0826 14.7628 17.2117 14.757 17.3432L14.5982 24.4125C14.5952 24.5443 14.6182 24.6754 14.6659 24.7983C14.7137 24.9213 14.7851 25.0336 14.8762 25.1289C15.0603 25.3214 15.3132 25.4329 15.5795 25.4389C15.8457 25.4449 16.1034 25.3448 16.2959 25.1608C16.4884 24.9768 16.5999 24.7238 16.6058 24.4576L16.7034 19.7988L21.9485 25.2849C22.1318 25.4766 22.3837 25.5876 22.6488 25.5936C22.914 25.5995 23.1706 25.4999 23.3623 25.3167C23.554 25.1334 23.6651 24.8815 23.671 24.6163C23.677 24.3512 23.5774 24.0945 23.3941 23.9028L18.149 18.4167L22.8075 18.5284C22.9395 18.5319 23.0709 18.5092 23.194 18.4617C23.3172 18.4142 23.4297 18.3428 23.5252 18.2516C23.6206 18.1603 23.697 18.0511 23.75 17.9302C23.803 17.8093 23.8315 17.6791 23.8339 17.5471C23.8374 17.4151 23.8148 17.2838 23.7673 17.1606C23.7198 17.0375 23.6483 16.9249 23.5571 16.8295C23.4659 16.7341 23.3567 16.6577 23.2357 16.6047C23.1148 16.5517 22.9846 16.5231 22.8526 16.5207Z" fill="#A8B5AD"/>
<path d="M28.3426 37.1164L35.4013 36.6991C35.5325 36.6885 35.6604 36.652 35.7775 36.5919C36.0139 36.4763 36.1953 36.2721 36.2822 36.0237C36.3282 35.9003 36.3493 35.7691 36.3444 35.6375L35.9271 28.5788C35.9193 28.4471 35.8856 28.3183 35.8281 28.1997C35.7705 28.0811 35.6902 27.9749 35.5916 27.8874C35.3925 27.7105 35.1313 27.62 34.8655 27.6357C34.5996 27.6514 34.3509 27.7721 34.174 27.9712C33.9972 28.1703 33.9067 28.4314 33.9224 28.6973L34.2044 33.3486L28.5301 28.3077C28.3318 28.1316 28.0717 28.0414 27.807 28.0571C27.5422 28.0727 27.2945 28.1929 27.1184 28.3912C26.9422 28.5895 26.8521 28.8496 26.8677 29.1144C26.8834 29.3791 27.0036 29.6268 27.2018 29.803L32.8762 34.8438L28.224 35.1117C28.0922 35.119 27.9632 35.1523 27.8443 35.2097C27.7254 35.267 27.619 35.3474 27.5314 35.4461C27.4437 35.5448 27.3764 35.6599 27.3334 35.7847C27.2905 35.9095 27.2726 36.0416 27.281 36.1733C27.2882 36.3052 27.3215 36.4342 27.3789 36.5531C27.4363 36.672 27.5166 36.7784 27.6153 36.866C27.714 36.9537 27.8291 37.021 27.9539 37.0639C28.0787 37.1069 28.2108 37.1248 28.3426 37.1164Z" fill="#A8B5AD"/>
</svg>
