<svg width="30" height="30" viewBox="0 0 30 30" fill="none" xmlns="http://www.w3.org/2000/svg">
<rect x="0.25" y="0.25" width="29.5" height="29.5" rx="1.75" stroke="#2ED960" stroke-width="0.5"/>
<g clip-path="url(#clip0_3752_1205)">
<g clip-path="url(#clip1_3752_1205)">
<path d="M24.3037 3H4.69625C3.76667 3 3 3.73792 3 4.64833V24.3517C3 25.2621 3.76667 26 4.69625 26H24.3037C25.2429 26 26 25.2621 26 24.3517V4.64833C26 3.73792 25.2333 3 24.3037 3ZM9.96708 22.2625H6.49792V11.855H9.96708V22.2625ZM8.24208 10.4367H8.21333C7.04417 10.4367 6.29667 9.64125 6.29667 8.64458C6.29667 7.62875 7.06333 6.8525 8.26125 6.8525C9.44958 6.8525 10.1779 7.61917 10.1971 8.64458C10.1971 9.64125 9.44958 10.4367 8.2325 10.4367H8.24208ZM22.4925 22.2625H19.0137V16.7042C19.0137 15.3146 18.5154 14.3562 17.26 14.3562C16.3017 14.3562 15.7267 14.9983 15.4679 15.6213C15.3721 15.8417 15.3625 16.1483 15.3625 16.4646V22.2625H11.8933C11.8933 22.2625 11.9412 12.8517 11.8933 11.8742H15.3721V13.35C15.6861 12.805 16.1432 12.3562 16.6938 12.0522C17.2444 11.7481 17.8677 11.6004 18.4963 11.625C20.7867 11.625 22.5021 13.12 22.5021 16.3112V22.2625H22.4925Z" fill="#2ED960"/>
</g>
</g>
<defs>
<clipPath id="clip0_3752_1205">
<rect x="5" y="5" width="20" height="20" rx="1" fill="white"/>
</clipPath>
<clipPath id="clip1_3752_1205">
<rect x="5" y="5" width="20" height="20" rx="2" fill="white"/>
</clipPath>
</defs>
</svg>
