<svg width="40" height="40" viewBox="0 0 40 40" fill="none" xmlns="http://www.w3.org/2000/svg">
<mask id="path-1-inside-1_3038_1098" fill="white">
<path d="M20.9945 38.7633L20.9761 38.7666L20.8578 38.825L20.8245 38.8316L20.8011 38.825L20.6828 38.7666C20.665 38.7611 20.6517 38.7639 20.6428 38.775L20.6361 38.7916L20.6078 39.505L20.6161 39.5383L20.6328 39.56L20.8061 39.6833L20.8311 39.69L20.8511 39.6833L21.0245 39.56L21.0445 39.5333L21.0511 39.505L21.0228 38.7933C21.0184 38.7755 21.0089 38.7655 20.9945 38.7633ZM21.4361 38.575L21.4145 38.5783L21.1061 38.7333L21.0895 38.75L21.0845 38.7683L21.1145 39.485L21.1228 39.505L21.1361 39.5166L21.4711 39.6716C21.4923 39.6772 21.5084 39.6728 21.5195 39.6583L21.5261 39.635L21.4695 38.6116C21.4639 38.5916 21.4528 38.5794 21.4361 38.575ZM20.2445 38.5783C20.2371 38.5739 20.2284 38.5724 20.22 38.5743C20.2116 38.5761 20.2042 38.5812 20.1995 38.5883L20.1895 38.6116L20.1328 39.635C20.1339 39.655 20.1434 39.6683 20.1611 39.675L20.1861 39.6716L20.5211 39.5166L20.5378 39.5033L20.5445 39.485L20.5728 38.7683L20.5678 38.7483L20.5511 38.7316L20.2445 38.5783Z"/>
</mask>
<path d="M20.9945 38.7633L21.1465 37.7749L20.9807 37.7494L20.8155 37.7795L20.9945 38.7633ZM20.9761 38.7666L20.7972 37.7828L20.6595 37.8078L20.534 37.8697L20.9761 38.7666ZM20.8578 38.825L21.0539 39.8056L21.1824 39.7799L21.3 39.7219L20.8578 38.825ZM20.8245 38.8316L20.5498 39.7932L20.7829 39.8598L21.0206 39.8122L20.8245 38.8316ZM20.8011 38.825L20.359 39.7219L20.4398 39.7618L20.5264 39.7865L20.8011 38.825ZM20.6828 38.7666L21.125 37.8697L21.0553 37.8353L20.9811 37.8122L20.6828 38.7666ZM20.6428 38.775L19.8619 38.1503L19.7694 38.266L19.7143 38.4036L20.6428 38.775ZM20.6361 38.7916L19.7077 38.4203L19.6438 38.58L19.6369 38.752L20.6361 38.7916ZM20.6078 39.505L19.6086 39.4653L19.6029 39.6085L19.6377 39.7475L20.6078 39.505ZM20.6161 39.5383L19.646 39.7808L19.6965 39.9829L19.8235 40.148L20.6161 39.5383ZM20.6328 39.56L19.8402 40.1697L19.9313 40.2881L20.0531 40.3748L20.6328 39.56ZM20.8061 39.6833L20.2264 40.4981L20.3738 40.603L20.5485 40.6496L20.8061 39.6833ZM20.8311 39.69L20.5735 40.6562L20.8631 40.7334L21.1474 40.6387L20.8311 39.69ZM20.8511 39.6833L21.1674 40.632L21.3091 40.5847L21.4309 40.4981L20.8511 39.6833ZM21.0245 39.56L21.6042 40.3748L21.7311 40.2845L21.8245 40.16L21.0245 39.56ZM21.0445 39.5333L21.8445 40.1333L21.97 39.966L22.0179 39.7623L21.0445 39.5333ZM21.0511 39.505L22.0246 39.734L22.0558 39.6014L22.0504 39.4652L21.0511 39.505ZM21.0228 38.7933L22.022 38.7535L22.0179 38.6507L21.993 38.5508L21.0228 38.7933ZM21.4361 38.575L21.6938 37.6087L21.4913 37.5547L21.2842 37.5866L21.4361 38.575ZM21.4145 38.5783L21.2625 37.5899L21.1064 37.6139L20.9653 37.6849L21.4145 38.5783ZM21.1061 38.7333L20.657 37.8399L20.513 37.9122L20.399 38.0262L21.1061 38.7333ZM21.0895 38.75L20.3824 38.0429L20.1946 38.2307L20.1247 38.4869L21.0895 38.75ZM21.0845 38.7683L20.1197 38.5052L20.0789 38.655L20.0854 38.8101L21.0845 38.7683ZM21.1145 39.485L20.1154 39.5268L20.1228 39.705L20.1914 39.8696L21.1145 39.485ZM21.1228 39.505L20.1997 39.8896L20.2892 40.1044L20.4643 40.2576L21.1228 39.505ZM21.1361 39.5166L20.4777 40.2692L20.5858 40.3639L20.7162 40.4242L21.1361 39.5166ZM21.4711 39.6716L21.0512 40.5792L21.1313 40.6163L21.2167 40.6387L21.4711 39.6716ZM21.5195 39.6583L22.3121 40.268L22.4285 40.1166L22.481 39.933L21.5195 39.6583ZM21.5261 39.635L22.4877 39.9097L22.5339 39.7478L22.5246 39.5797L21.5261 39.635ZM21.4695 38.6116L22.4679 38.5564L22.462 38.4483L22.433 38.344L21.4695 38.6116ZM20.2445 38.5783L19.7262 39.4335L19.7609 39.4546L19.7973 39.4727L20.2445 38.5783ZM20.1995 38.5883L19.3678 38.0331L19.3166 38.1097L19.2803 38.1944L20.1995 38.5883ZM20.1895 38.6116L19.2703 38.2177L19.2008 38.38L19.191 38.5564L20.1895 38.6116ZM20.1328 39.635L19.1343 39.5797L19.1313 39.6351L19.1344 39.6904L20.1328 39.635ZM20.1611 39.675L19.81 40.6113L20.0448 40.6994L20.2934 40.6662L20.1611 39.675ZM20.1861 39.6716L20.3184 40.6629L20.4686 40.6428L20.6061 40.5792L20.1861 39.6716ZM20.5211 39.5166L20.9411 40.4242L21.0511 40.3733L21.1458 40.2975L20.5211 39.5166ZM20.5378 39.5033L21.1625 40.2842L21.3817 40.1089L21.4776 39.845L20.5378 39.5033ZM20.5445 39.485L21.4843 39.8267L21.5375 39.6802L21.5437 39.5245L20.5445 39.485ZM20.5728 38.7683L21.572 38.8078L21.5777 38.6647L21.5429 38.5257L20.5728 38.7683ZM20.5678 38.7483L21.5379 38.5057L21.4708 38.237L21.2749 38.0412L20.5678 38.7483ZM20.5511 38.7316L21.2583 38.0245L21.1435 37.9098L20.9984 37.8372L20.5511 38.7316ZM20.9945 38.7633L20.8155 37.7795L20.7972 37.7828L20.9761 38.7666L21.1551 39.7505L21.1734 39.7472L20.9945 38.7633ZM20.9761 38.7666L20.534 37.8697L20.4157 37.928L20.8578 38.825L21.3 39.7219L21.4183 39.6636L20.9761 38.7666ZM20.8578 38.825L20.6617 37.8444L20.6284 37.8511L20.8245 38.8316L21.0206 39.8122L21.0539 39.8056L20.8578 38.825ZM20.8245 38.8316L21.0992 37.8701L21.0758 37.8635L20.8011 38.825L20.5264 39.7865L20.5498 39.7932L20.8245 38.8316ZM20.8011 38.825L21.2433 37.928L21.125 37.8697L20.6828 38.7666L20.2407 39.6636L20.359 39.7219L20.8011 38.825ZM20.6828 38.7666L20.9811 37.8122C20.8667 37.7764 20.6791 37.739 20.4556 37.7856C20.2105 37.8366 20.0046 37.9719 19.8619 38.1503L20.6428 38.775L21.4237 39.3997C21.2899 39.5669 21.0952 39.6953 20.8634 39.7436C20.6532 39.7873 20.4811 39.7513 20.3845 39.7211L20.6828 38.7666ZM20.6428 38.775L19.7143 38.4036L19.7077 38.4203L20.6361 38.7916L21.5646 39.163L21.5713 39.1463L20.6428 38.775ZM20.6361 38.7916L19.6369 38.752L19.6086 39.4653L20.6078 39.505L21.607 39.5447L21.6354 38.8313L20.6361 38.7916ZM20.6078 39.505L19.6377 39.7475L19.646 39.7808L20.6161 39.5383L21.5863 39.2958L21.578 39.2624L20.6078 39.505ZM20.6161 39.5383L19.8235 40.148L19.8402 40.1697L20.6328 39.56L21.4254 38.9503L21.4088 38.9286L20.6161 39.5383ZM20.6328 39.56L20.0531 40.3748L20.2264 40.4981L20.8061 39.6833L21.3859 38.8685L21.2126 38.7452L20.6328 39.56ZM20.8061 39.6833L20.5485 40.6496L20.5735 40.6562L20.8311 39.69L21.0888 38.7237L21.0638 38.7171L20.8061 39.6833ZM20.8311 39.69L21.1474 40.6387L21.1674 40.632L20.8511 39.6833L20.5349 38.7346L20.5149 38.7413L20.8311 39.69ZM20.8511 39.6833L21.4309 40.4981L21.6042 40.3748L21.0245 39.56L20.4447 38.7452L20.2714 38.8685L20.8511 39.6833ZM21.0245 39.56L21.8245 40.16L21.8445 40.1333L21.0445 39.5333L20.2445 38.9333L20.2245 38.96L21.0245 39.56ZM21.0445 39.5333L22.0179 39.7623L22.0246 39.734L21.0511 39.505L20.0777 39.276L20.0711 39.3043L21.0445 39.5333ZM21.0511 39.505L22.0504 39.4652L22.022 38.7535L21.0228 38.7933L20.0236 38.8331L20.0519 39.5448L21.0511 39.505ZM21.0228 38.7933L21.993 38.5508C21.9625 38.4288 21.8947 38.2503 21.7394 38.0859C21.572 37.9086 21.3589 37.8076 21.1465 37.7749L20.9945 38.7633L20.8424 39.7517C20.6445 39.7212 20.4433 39.6263 20.2854 39.4591C20.1396 39.3047 20.0787 39.14 20.0527 39.0358L21.0228 38.7933ZM21.4361 38.575L21.2842 37.5866L21.2625 37.5899L21.4145 38.5783L21.5665 39.5667L21.5881 39.5634L21.4361 38.575ZM21.4145 38.5783L20.9653 37.6849L20.657 37.8399L21.1061 38.7333L21.5553 39.6268L21.8636 39.4718L21.4145 38.5783ZM21.1061 38.7333L20.399 38.0262L20.3824 38.0429L21.0895 38.75L21.7966 39.4571L21.8133 39.4404L21.1061 38.7333ZM21.0895 38.75L20.1247 38.4869L20.1197 38.5052L21.0845 38.7683L22.0493 39.0314L22.0543 39.013L21.0895 38.75ZM21.0845 38.7683L20.0854 38.8101L20.1154 39.5268L21.1145 39.485L22.1136 39.4432L22.0836 38.7265L21.0845 38.7683ZM21.1145 39.485L20.1914 39.8696L20.1997 39.8896L21.1228 39.505L22.0459 39.1203L22.0375 39.1003L21.1145 39.485ZM21.1228 39.505L20.4643 40.2576L20.4777 40.2692L21.1361 39.5166L21.7946 38.7641L21.7813 38.7524L21.1228 39.505ZM21.1361 39.5166L20.7162 40.4242L21.0512 40.5792L21.4711 39.6716L21.8911 38.7641L21.5561 38.6091L21.1361 39.5166ZM21.4711 39.6716L21.2167 40.6387C21.347 40.673 21.5423 40.6979 21.765 40.6365C22.0016 40.5712 22.1868 40.4309 22.3121 40.268L21.5195 39.6583L20.7269 39.0486C20.8411 38.9001 21.0126 38.7693 21.2332 38.7085C21.4397 38.6515 21.6164 38.6758 21.7256 38.7046L21.4711 39.6716ZM21.5195 39.6583L22.481 39.933L22.4877 39.9097L21.5261 39.635L20.5646 39.3603L20.5579 39.3836L21.5195 39.6583ZM21.5261 39.635L22.5246 39.5797L22.4679 38.5564L21.4695 38.6116L20.471 38.6669L20.5277 39.6903L21.5261 39.635ZM21.4695 38.6116L22.433 38.344C22.3552 38.0641 22.1275 37.7244 21.6938 37.6087L21.4361 38.575L21.1785 39.5412C21.0099 39.4963 20.8466 39.4027 20.7171 39.2602C20.5939 39.1248 20.5346 38.9822 20.506 38.8793L21.4695 38.6116ZM20.2445 38.5783L20.7628 37.7231C20.535 37.585 20.2628 37.5404 20.003 37.5981L20.22 38.5743L20.4369 39.5505C20.1939 39.6045 19.9393 39.5627 19.7262 39.4335L20.2445 38.5783ZM20.22 38.5743L20.003 37.5981C19.7432 37.6558 19.5156 37.8116 19.3678 38.0331L20.1995 38.5883L21.0312 39.1435C20.8929 39.3507 20.68 39.4965 20.4369 39.5505L20.22 38.5743ZM20.1995 38.5883L19.2803 38.1944L19.2703 38.2177L20.1895 38.6116L21.1086 39.0056L21.1186 38.9823L20.1995 38.5883ZM20.1895 38.6116L19.191 38.5564L19.1343 39.5797L20.1328 39.635L21.1313 39.6903L21.1879 38.6669L20.1895 38.6116ZM20.1328 39.635L19.1344 39.6904C19.143 39.8458 19.189 40.0464 19.3247 40.238C19.4629 40.4331 19.645 40.5494 19.81 40.6113L20.1611 39.675L20.5123 38.7387C20.6595 38.7939 20.828 38.9002 20.9568 39.082C21.083 39.2602 21.1238 39.4442 21.1313 39.5795L20.1328 39.635ZM20.1611 39.675L20.2934 40.6662L20.3184 40.6629L20.1861 39.6716L20.0539 38.6804L20.0289 38.6838L20.1611 39.675ZM20.1861 39.6716L20.6061 40.5792L20.9411 40.4242L20.5211 39.5166L20.1012 38.6091L19.7662 38.7641L20.1861 39.6716ZM20.5211 39.5166L21.1458 40.2975L21.1625 40.2842L20.5378 39.5033L19.9132 38.7224L19.8965 38.7357L20.5211 39.5166ZM20.5378 39.5033L21.4776 39.845L21.4843 39.8267L20.5445 39.485L19.6047 39.1432L19.598 39.1616L20.5378 39.5033ZM20.5445 39.485L21.5437 39.5245L21.572 38.8078L20.5728 38.7683L19.5736 38.7288L19.5453 39.4455L20.5445 39.485ZM20.5728 38.7683L21.5429 38.5257L21.5379 38.5057L20.5678 38.7483L19.5977 38.9909L19.6027 39.0109L20.5728 38.7683ZM20.5678 38.7483L21.2749 38.0412L21.2583 38.0245L20.5511 38.7316L19.844 39.4388L19.8607 39.4554L20.5678 38.7483ZM20.5511 38.7316L20.9984 37.8372L20.6917 37.6839L20.2445 38.5783L19.7973 39.4727L20.1039 39.6261L20.5511 38.7316Z" fill="#2ED960" mask="url(#path-1-inside-1_3038_1098)"/>
<path d="M11.6689 26.1666C11.0944 26.1667 10.543 26.3951 10.1367 26.8014C9.73059 27.2077 9.50293 27.7591 9.50293 28.3336C9.50302 28.9081 9.73047 29.4596 10.1367 29.8658C10.543 30.2721 11.0944 30.4995 11.6689 30.4996C12.2434 30.4996 12.7949 30.272 13.2012 29.8658C13.6074 29.4596 13.8359 28.9081 13.8359 28.3336C13.8359 27.759 13.6075 27.2077 13.2012 26.8014C12.7948 26.3951 12.2436 26.1666 11.6689 26.1666ZM26.6689 26.1666C26.0945 26.1667 25.5439 26.3952 25.1377 26.8014C24.7314 27.2077 24.5029 27.759 24.5029 28.3336C24.503 28.9081 24.7314 29.4596 25.1377 29.8658C25.5439 30.2718 26.0947 30.4995 26.6689 30.4996C27.2434 30.4996 27.7949 30.272 28.2012 29.8658C28.6074 29.4596 28.8359 28.9081 28.8359 28.3336C28.8359 27.759 28.6075 27.2077 28.2012 26.8014C27.7948 26.3951 27.2436 26.1666 26.6689 26.1666ZM7.16895 27.8336H6.66895C5.91769 27.8335 5.19728 27.5347 4.66602 27.0035C4.13466 26.4722 3.83594 25.7511 3.83594 24.9996V9.99963C3.83602 9.2483 4.13474 8.52798 4.66602 7.9967C5.19729 7.46543 5.91762 7.16671 6.66895 7.16663H25.0029C25.7543 7.16671 26.4746 7.46543 27.0059 7.9967C27.5371 8.52798 27.8359 9.2483 27.8359 9.99963V12.1666H30.8691C31.2937 12.1667 31.713 12.2621 32.0957 12.4459C32.4784 12.6298 32.8147 12.8977 33.0801 13.2291L35.5469 16.3141C35.9493 16.8165 36.1687 17.441 36.1689 18.0846V24.9996C36.1689 25.751 35.8711 26.4722 35.3398 27.0035C34.8085 27.5349 34.0874 27.8336 33.3359 27.8336H31.1689V28.3336C31.1689 29.5269 30.6953 30.6714 29.8516 31.5153C29.0076 32.3592 27.8624 32.8336 26.6689 32.8336C25.4756 32.8335 24.3311 32.3591 23.4873 31.5153C22.6435 30.6714 22.169 29.527 22.1689 28.3336V27.8336H16.1689V28.3336C16.1689 28.9244 16.0532 29.5095 15.8271 30.0553C15.601 30.6012 15.2693 31.0974 14.8516 31.5153C14.4337 31.9331 13.9375 32.2647 13.3916 32.4908C12.8456 32.717 12.2599 32.8336 11.6689 32.8336C11.0781 32.8336 10.4931 32.7169 9.94727 32.4908C9.4013 32.2647 8.90517 31.9331 8.4873 31.5153C8.06944 31.0974 7.73787 30.6013 7.51172 30.0553C7.28564 29.5095 7.16899 28.9244 7.16895 28.3336V27.8336ZM33.8359 17.9078L33.7266 17.7711L31.2598 14.6871L31.1094 14.4996H27.8359V22.1666H33.8359V17.9078Z" stroke="#2ED960"/>
</svg>
